# Blender v2.70 (sub 0) OBJ File: 'background.blend'
# www.blender.org
mtllib background.mtl
o Cube
v 1.000000 -10.000000 -4.000000
v 1.000000 -10.000000 4.000000
v -1.000000 -10.000000 4.000000
v -1.000000 -10.000000 -4.000000
v 1.000000 10.000000 -3.999999
v 0.999999 10.000000 4.000001
v -1.000000 10.000000 4.000000
v -1.000000 10.000000 -4.000000
vt 0.000000 -7.500000
vt -1.000000 -7.500000
vt -1.000000 0.500000
vt 0.500000 5.500000
vt -7.500000 5.500000
vt -7.500000 0.000000
vt 0.000000 0.000000
vt -0.000000 5.500000
vt -1.000000 5.500000
vt 0.010646 0.997776
vt 0.992503 0.994266
vt 0.992616 0.000000
vt 0.000000 -5.000000
vt -1.000000 -5.000000
vt 0.000000 0.500000
vt 0.479337 0.000000
vt -1.000000 0.000000
vt 0.010447 0.000000
vn 0.000000 -1.000000 0.000000
vn 0.000000 1.000000 -0.000000
vn 1.000000 0.000000 0.000000
vn -0.000000 -0.000000 1.000000
vn -1.000000 -0.000000 -0.000000
vn 0.000000 0.000000 -1.000000
usemtl Material
s off
f 2/1/1 3/2/1 4/3/1
f 8/3/2 7/2/2 6/1/2
f 5/4/3 6/5/3 2/6/3
f 2/7/4 6/8/4 7/9/4
f 7/10/5 8/11/5 4/12/5
f 1/13/6 4/14/6 8/3/6
f 1/15/1 2/1/1 4/3/1
f 5/15/2 8/3/2 6/1/2
f 1/16/3 5/4/3 2/6/3
f 3/17/4 2/7/4 7/9/4
f 3/18/5 7/10/5 4/12/5
f 5/15/6 1/13/6 8/3/6
