# Blender v2.70 (sub 0) OBJ File: 't1playermissile.blend'
# www.blender.org
mtllib t1playermissile.mtl
o Box045
v -0.506033 0.995921 0.493798
v -0.506033 -0.000000 0.493798
v 0.489888 -0.000000 0.493798
v 0.489888 0.995921 0.493798
v 0.489888 0.000000 -0.502123
v -0.506033 0.000000 -0.502123
v -0.506033 0.995921 -0.502123
v 0.489888 0.995921 -0.502123
v -0.506033 1.995921 0.493798
v -0.506033 1.000000 0.493798
v 0.489888 1.000000 0.493798
v 0.489888 1.995921 0.493798
v 0.489888 1.000000 -0.502123
v -0.506033 1.000000 -0.502123
v -0.506033 1.995921 -0.502123
v 0.489888 1.995921 -0.502123
v -0.506033 2.995921 0.493798
v -0.506033 2.000000 0.493797
v 0.489888 2.000000 0.493797
v 0.489888 2.995921 0.493798
v 0.489888 2.000000 -0.502123
v -0.506033 2.000000 -0.502123
v -0.506033 2.995921 -0.502123
v 0.489888 2.995921 -0.502123
v -1.506033 3.995921 0.493798
v -1.506033 3.000000 0.493798
v -0.510112 3.000000 0.493798
v -0.510112 3.995921 0.493798
v -0.510112 3.000000 -0.502123
v -1.506033 3.000000 -0.502123
v -1.506033 3.995921 -0.502123
v -0.510112 3.995921 -0.502123
v -0.506033 3.995921 0.493798
v -0.506033 3.000000 0.493798
v 0.489888 3.000000 0.493798
v 0.489888 3.995921 0.493798
v 0.489888 3.000000 -0.502123
v -0.506033 3.000000 -0.502123
v -0.506033 3.995921 -0.502123
v 0.489888 3.995921 -0.502123
v 0.493967 3.995921 0.493798
v 0.493967 3.000000 0.493798
v 1.489888 3.000000 0.493798
v 1.489888 3.995921 0.493798
v 1.489888 3.000000 -0.502123
v 0.493967 3.000000 -0.502123
v 0.493967 3.995921 -0.502123
v 1.489888 3.995921 -0.502123
v -0.506033 4.995921 0.493798
v -0.506033 4.000000 0.493797
v 0.489888 4.000000 0.493797
v 0.489888 4.995921 0.493798
v 0.489888 4.000000 -0.502123
v -0.506033 4.000000 -0.502123
v -0.506033 4.995921 -0.502123
v 0.489888 4.995921 -0.502123
vt 0.000000 0.000000
vt 1.000000 0.000000
vt 1.000000 1.000000
vt 0.000000 1.000000
vn 0.000000 -0.000000 1.000000
vn 0.000000 0.000000 -1.000000
vn 0.000000 -1.000000 -0.000000
vn 1.000000 -0.000000 0.000000
vn 0.000000 1.000000 0.000000
vn -1.000000 -0.000000 0.000000
usemtl 02___Default
s 1
f 2/1/1 3/2/1 4/3/1
f 6/2/2 7/3/2 8/4/2
f 2/1/3 6/4/3 5/3/3
f 3/1/4 5/4/4 8/3/4
f 4/1/5 8/4/5 7/3/5
f 1/1/6 7/4/6 6/3/6
f 1/4/1 2/1/1 4/3/1
f 5/1/2 6/2/2 8/4/2
f 3/2/3 2/1/3 5/3/3
f 4/2/4 3/1/4 8/3/4
f 1/2/5 4/1/5 7/3/5
f 2/2/6 1/1/6 6/3/6
usemtl 02___Default.006
f 10/1/1 11/2/1 12/3/1
f 14/2/2 15/3/2 16/4/2
f 10/1/3 14/4/3 13/3/3
f 11/1/4 13/4/4 16/3/4
f 12/1/5 16/4/5 15/3/5
f 9/1/6 15/4/6 14/3/6
f 9/4/1 10/1/1 12/3/1
f 13/1/2 14/2/2 16/4/2
f 11/2/3 10/1/3 13/3/3
f 12/2/4 11/1/4 16/3/4
f 9/2/5 12/1/5 15/3/5
f 10/2/6 9/1/6 14/3/6
usemtl 02___Default.007
f 18/1/1 19/2/1 20/3/1
f 22/2/2 23/3/2 24/4/2
f 18/1/3 22/4/3 21/3/3
f 19/1/4 21/4/4 24/3/4
f 20/1/5 24/4/5 23/3/5
f 17/1/6 23/4/6 22/3/6
f 17/4/1 18/1/1 20/3/1
f 21/1/2 22/2/2 24/4/2
f 19/2/3 18/1/3 21/3/3
f 20/2/4 19/1/4 24/3/4
f 17/2/5 20/1/5 23/3/5
f 18/2/6 17/1/6 22/3/6
usemtl 02___Default.008
f 26/1/1 27/2/1 28/3/1
f 30/2/2 31/3/2 32/4/2
f 26/1/3 30/4/3 29/3/3
f 27/1/4 29/4/4 32/3/4
f 28/1/5 32/4/5 31/3/5
f 25/1/6 31/4/6 30/3/6
f 25/4/1 26/1/1 28/3/1
f 29/1/2 30/2/2 32/4/2
f 27/2/3 26/1/3 29/3/3
f 28/2/4 27/1/4 32/3/4
f 25/2/5 28/1/5 31/3/5
f 26/2/6 25/1/6 30/3/6
usemtl 02___Default.009
f 34/1/1 35/2/1 36/3/1
f 38/2/2 39/3/2 40/4/2
f 34/1/3 38/4/3 37/3/3
f 36/2/4 35/1/4 37/4/4
f 36/1/5 40/4/5 39/3/5
f 33/1/6 39/4/6 38/3/6
f 33/4/1 34/1/1 36/3/1
f 37/1/2 38/2/2 40/4/2
f 35/2/3 34/1/3 37/3/3
f 40/3/4 36/2/4 37/4/4
f 33/2/5 36/1/5 39/3/5
f 34/2/6 33/1/6 38/3/6
usemtl 02___Default.010
f 42/1/1 43/2/1 44/3/1
f 46/2/2 47/3/2 48/4/2
f 42/1/3 46/4/3 45/3/3
f 43/1/4 45/4/4 48/3/4
f 44/1/5 48/4/5 47/3/5
f 41/1/6 47/4/6 46/3/6
f 41/4/1 42/1/1 44/3/1
f 45/1/2 46/2/2 48/4/2
f 43/2/3 42/1/3 45/3/3
f 44/2/4 43/1/4 48/3/4
f 41/2/5 44/1/5 47/3/5
f 42/2/6 41/1/6 46/3/6
usemtl 02___Default.011
f 50/1/1 51/2/1 52/3/1
f 54/2/2 55/3/2 56/4/2
f 50/1/3 54/4/3 53/3/3
f 51/1/4 53/4/4 56/3/4
f 52/1/5 56/4/5 55/3/5
f 49/1/6 55/4/6 54/3/6
f 49/4/1 50/1/1 52/3/1
f 53/1/2 54/2/2 56/4/2
f 51/2/3 50/1/3 53/3/3
f 52/2/4 51/1/4 56/3/4
f 49/2/5 52/1/5 55/3/5
f 50/2/6 49/1/6 54/3/6
